# xmcd
#
# Track frame offsets:
#	150
#	13806
#	27917
#	43980
#	60185
#	85781
#	103261
#	125770
#	142530
#	157513
#	172267
#	191552
#	206926
#	222349
#
# Disc length: 3282 seconds
#
# Revision: 1
# Processed by: cddbd v1.5.2PL0 Copyright (c) Steve Scherf et al.
# Submitted via: audiograbber 1.83.01
#
DISCID=c20cd00e
DTITLE=Blues Solution - Open Your Door
DYEAR=2011
DGENRE=Blues
TTITLE0=Open Your Door
TTITLE1=Blow Wind Blow
TTITLE2=Got My Mojo Working
TTITLE3=How Many More Years
TTITLE4=Long Distance Call
TTITLE5=Oh Baby
TTITLE6=I Lost My Woman
TTITLE7=Checking Up On My Baby
TTITLE8=Everything's Gonna Be Alright
TTITLE9=Caledonia
TTITLE10=Crosseyed Cat
TTITLE11=Tricky Woman
TTITLE12=The Lawyers Theme
TTITLE13=Shrink Doctor
EXTD=
EXTT0=
EXTT1=
EXTT2=
EXTT3=
EXTT4=
EXTT5=
EXTT6=
EXTT7=
EXTT8=
EXTT9=
EXTT10=
EXTT11=
EXTT12=
EXTT13=
PLAYORDER=
